<?xml version="1.0" encoding="utf-8"?>
<!DOCTYPE svg PUBLIC "-//W3C//DTD SVG 1.1//EN" "http://www.w3.org/Graphics/SVG/1.1/DTD/svg11.dtd">
<svg version="1.1" xmlns="http://www.w3.org/2000/svg" xmlns:xlink="http://www.w3.org/1999/xlink" x="0px" y="0px" width="110" height="110" viewBox="0 0 107.959 107.994" xml:space="preserve">
<path d="M71.884,8.995c-27.187,0-35.907,0-35.907,0s-27.082,0-27.082,26.994c0,0,0,26.923,27.082,27.017v35.93h35.907V62.912
	c26.901,0,27.187-26.923,27.187-26.923S99.07,8.995,71.884,8.995z M35.977,44.901c0,0-9.006,0.188-9.006-8.912s9.006-9.1,9.006-9.1
	s9.006,0.188,9.006,9.1S35.977,44.901,35.977,44.901z M71.941,44.901c0,0-8.947,0.187-8.947-8.913s8.89-9.1,8.89-9.1
	s9.005,0.188,9.005,9.1S71.941,44.901,71.941,44.901z"/>
</svg>